<?xml version="1.0" encoding="UTF-8" standalone="no"?>
<!-- Created with Inkscape (http://www.inkscape.org/) -->

<svg
   xmlns:dc="http://purl.org/dc/elements/1.1/"
   xmlns:cc="http://creativecommons.org/ns#"
   xmlns:rdf="http://www.w3.org/1999/02/22-rdf-syntax-ns#"
   xmlns:svg="http://www.w3.org/2000/svg"
   xmlns="http://www.w3.org/2000/svg"
   xmlns:sodipodi="http://sodipodi.sourceforge.net/DTD/sodipodi-0.dtd"
   xmlns:inkscape="http://www.inkscape.org/namespaces/inkscape"
   width="72.05191mm"
   height="13.130391mm"
   viewBox="0 0 72.051908 13.130391"
   version="1.1"
   id="svg5379"
   inkscape:version="0.92.3 (2405546, 2018-03-11)"
   sodipodi:docname="logo-1718-riga.svg">
  <defs
     id="defs5373" />
  <sodipodi:namedview
     id="base"
     pagecolor="#ffffff"
     bordercolor="#666666"
     borderopacity="1.0"
     inkscape:pageopacity="0.0"
     inkscape:pageshadow="2"
     inkscape:zoom="1.979899"
     inkscape:cx="-201.02694"
     inkscape:cy="-11.346472"
     inkscape:document-units="mm"
     inkscape:current-layer="layer1"
     showgrid="false"
     fit-margin-top="0"
     fit-margin-left="0"
     fit-margin-right="0"
     fit-margin-bottom="0"
     inkscape:window-width="1920"
     inkscape:window-height="1057"
     inkscape:window-x="-8"
     inkscape:window-y="-8"
     inkscape:window-maximized="1" />
  <metadata
     id="metadata5376">
    <rdf:RDF>
      <cc:Work
         rdf:about="">
        <dc:format>image/svg+xml</dc:format>
        <dc:type
           rdf:resource="http://purl.org/dc/dcmitype/StillImage" />
        <dc:title />
      </cc:Work>
    </rdf:RDF>
  </metadata>
  <g
     inkscape:label="Livello 1"
     inkscape:groupmode="layer"
     id="layer1"
     transform="translate(-196.67881,9.1421454)">
    <g
       id="g827"
       transform="translate(46.638533,10.022607)"
       style="fill:#eaeaea;fill-opacity:1">
      <path
         style="opacity:1;fill:#eaeaea;fill-opacity:1;stroke:none;stroke-width:0.04045679;stroke-linecap:round;stroke-linejoin:round;stroke-miterlimit:4;stroke-dasharray:none;stroke-opacity:1"
         d="m 155.05552,-6.2116818 c -3.75422,-0.9224742 -6.0164,-5.1978312 -4.57822,-8.6524912 0.72134,-1.732743 1.95745,-2.92794 3.60758,-3.488181 0.60074,-0.203958 0.83172,-0.235691 1.69631,-0.233054 0.59828,0.0018 1.26344,0.06093 1.65363,0.146946 l 0.65275,0.143894 0.88797,-0.45807 c 0.48838,-0.251937 0.90981,-0.436233 0.93649,-0.409545 0.0267,0.02669 -0.0135,0.348543 -0.0893,0.71523 l -0.13788,0.666705 0.40866,0.47834 0.40866,0.47834 0.5769,0.0087 c 0.3173,0.0047 0.67482,0.03648 0.79449,0.07047 0.21233,0.0603 0.2034,0.07653 -0.3699,0.672797 -0.49645,0.516348 -0.58747,0.658092 -0.58747,0.914914 0,0.167143 -0.0645,0.493222 -0.14335,0.724614 -0.71548,1.231147 -0.73147,1.102087 -1.30331,1.408653 -0.60159,0.258735 -1.35346,0.197154 -2.25224,-0.184463 -1.8873,-0.801341 -2.08571,-0.834093 -3.02837,-0.499887 -0.7047,0.249834 -1.08825,0.852827 -1.23274,1.938039 -0.0444,0.333469 -0.12896,0.472618 -0.52464,0.863385 -0.25945,0.256218 -0.45163,0.498351 -0.42708,0.538067 0.0245,0.03972 0.30668,0.07248 0.62697,0.0728 l 0.58233,6.07e-4 0.48972,0.5013311 0.48973,0.5013245 -0.0711,0.4336937 c -0.0391,0.2385325 -0.0735,0.5445678 -0.0763,0.6800853 l -0.005,0.2463611 0.73142,-0.3986934 c 0.40228,-0.2192868 0.80725,-0.3986995 0.89992,-0.3986995 0.0927,0 0.4783,0.081832 0.85694,0.1818557 0.80788,0.2134078 2.07457,0.2505526 2.86426,0.084001 0.6922,-0.1459963 1.63561,-0.5899373 2.1871,-1.0291811 0.57335,-0.4566679 1.28269,-1.5180294 1.51311,-2.2640584 0.16717,-0.541223 0.31471,-1.664579 0.36825,-2.803836 l 0.0225,-0.478679 0.11298,0.348133 c 0.0621,0.19147 0.13574,0.720203 0.16356,1.174964 0.13037,2.130794 -0.55594,3.9796117 -2.01922,5.4395378 -0.98644,0.9841711 -1.90874,1.4916976 -3.40728,1.8749591 -0.88752,0.2269875 -2.33224,0.2226315 -3.27854,-0.00989 z"
         id="path5230"
         inkscape:connector-curvature="0"
         sodipodi:nodetypes="csssscscscccssssccsssssccccsccsssssssccssscc" />
      <path
         inkscape:connector-curvature="0"
         id="path5232"
         d="m 175.81017,-7.90318 c -0.21579,-0.2310552 -0.27014,-0.4156387 -0.26678,-0.9060211 0.004,-0.529856 0.11857,-0.8416603 0.82295,-2.2326829 0.45029,-0.889253 0.8172,-1.682905 0.81534,-1.763666 -0.002,-0.08076 -0.12672,-0.203038 -0.27748,-0.27173 -0.49679,-0.226343 -0.73788,0.04318 -1.5263,1.706384 -0.84859,1.7901585 -1.61311,2.7159745 -2.66965,3.2328959 -1.09267,0.5345911 -2.26237,0.3683701 -2.59847,-0.3692708 -0.17757,-0.3897237 -0.5934,-0.3655984 -0.96925,0.056231 -0.42075,0.4722159 -1.06771,0.7006149 -1.98309,0.7001069 -1.2604,-0.0012 -1.87906,-0.5361264 -1.63611,-1.4160131 0.19829,-0.7181581 0.78699,-1.0269019 1.69523,-0.8890679 0.88463,0.1342541 0.75896,-0.07812 -0.43211,-0.730238 -0.97172,-0.532028 -1.24925,-1.28377 -0.82156,-2.225361 0.78178,-1.721178 3.83726,-2.312115 4.12148,-0.797106 0.10236,0.545643 -0.22785,1.034524 -0.69876,1.034524 -0.26252,0 -0.34193,-0.07141 -0.44949,-0.404205 -0.0888,-0.274756 -0.21102,-0.415662 -0.38162,-0.439949 -0.32495,-0.04628 -1.12614,0.363727 -1.35822,0.695072 -0.33044,0.471777 -0.22885,0.73383 0.50273,1.296773 0.37598,0.289308 0.92201,0.798549 1.2134,1.131661 0.44084,0.5039523 0.56363,0.5851631 0.73113,0.483627 0.34981,-0.212024 1.10696,-1.449979 1.629,-2.663452 l 0.50369,-1.170833 -0.24389,-0.243887 c -0.50485,-0.504853 -0.24719,-1.118506 0.51781,-1.23322 l 0.53013,-0.0795 0.48009,-0.989426 c 0.52422,-1.080373 0.69462,-1.248038 1.1518,-1.133289 0.52385,0.131482 0.58517,0.43996 0.231,1.162103 -0.17187,0.350423 -0.2803,0.669318 -0.24097,0.708653 0.14117,0.141172 0.50473,-0.07126 0.70648,-0.412775 0.22905,-0.387748 0.95257,-0.807152 1.39243,-0.807152 0.15779,0 0.42806,0.121435 0.60062,0.269859 0.25918,0.222937 0.31235,0.361383 0.30578,0.796158 -0.004,0.289469 -0.0647,0.632328 -0.13407,0.761928 -0.22372,0.418041 -0.14667,0.581849 0.34268,0.728471 0.25784,0.07725 0.60175,0.298454 0.76425,0.491572 0.26204,0.311412 0.2881,0.422372 0.23045,0.980973 -0.0528,0.511597 -0.211,0.870047 -0.84272,1.909411 -0.60316,0.9923714 -0.77955,1.383273 -0.78586,1.7415379 -0.007,0.3896543 0.0312,0.4675506 0.24344,0.4977621 0.18999,0.027059 0.40386,-0.1488055 0.8737,-0.7184123 0.34217,-0.414819 0.67847,-0.8726807 0.74733,-1.0174557 0.0689,-0.144775 0.30387,-0.653 0.52223,-1.129386 0.53253,-1.161803 1.36577,-2.062327 2.29344,-2.478647 0.85804,-0.385058 1.71394,-0.439996 2.05443,-0.131864 0.21795,0.197253 0.2402,0.195197 0.57591,-0.053 0.32932,-0.243482 0.36548,-0.247501 0.63521,-0.07077 0.5202,0.34085 0.4888,0.562943 -0.28489,2.015382 -0.39672,0.744743 -0.89684,1.687444 -1.11138,2.094895 -0.61214,1.1625767 -0.38539,1.6459259 0.39359,0.8389926 0.49586,-0.5136416 1.49561,-2.2985226 2.01692,-3.6008386 0.38171,-0.953579 0.66805,-1.330057 1.09265,-1.436617 0.36299,-0.09111 0.73735,0.112635 0.73735,0.401284 0,0.297322 0.14409,0.286247 0.66653,-0.05124 0.56527,-0.365148 1.08705,-0.463774 1.58471,-0.299528 0.47433,0.156543 0.75143,0.504056 0.75143,0.942365 0,0.172307 -0.36093,1.057218 -0.80205,1.966462 -0.44113,0.909243 -0.83441,1.7701095 -0.87394,1.9130251 -0.13224,0.4780253 0.24287,0.2857042 0.7482,-0.3836028 0.53555,-0.7093353 0.87206,-1.3612383 1.62408,-3.1462803 0.62093,-1.473896 0.97684,-1.726432 1.43901,-1.021082 0.17819,0.271973 0.15518,0.35472 -0.58802,2.113846 -0.76917,1.820601 -1.01631,2.8142085 -0.74214,2.9836631 0.22266,0.1376032 0.84443,-0.5585777 1.50698,-1.6873511 0.54259,-0.924408 0.6411,-1.03292 0.90938,-1.001773 0.47222,0.05482 0.4636,0.618516 -0.0252,1.647786 -0.7059,1.4864379 -1.49782,2.140489 -2.5917,2.140489 -0.46189,0 -0.63085,-0.05776 -0.87071,-0.2976109 l -0.2976,-0.2976109 -0.50783,0.2976109 c -0.70286,0.4118969 -1.48099,0.4117819 -1.89307,0 -0.47511,-0.4751035 -0.37029,-0.8957662 1.0103,-4.0547271 0.21781,-0.498374 0.23673,-0.62966 0.11234,-0.77954 -0.60327,-0.7269 -2.12346,1.123761 -3.30691,4.025844 -0.42907,1.052171 -0.42885,1.052032 -1.87775,1.078871 -1.10535,0.02049 -1.2987,-0.0051 -1.55353,-0.205544 -0.36665,-0.2884066 -0.48065,-0.2865357 -0.97017,0.01601 -0.56424,0.348726 -1.41576,0.260355 -1.89252,-0.1964088 -0.28836,-0.2762689 -0.37787,-0.3078316 -0.54316,-0.1915012 -0.80974,0.569895 -1.26853,0.769781 -1.86409,0.812119 -0.56971,0.0405 -0.67466,0.01245 -0.91457,-0.244406 z m -8.26826,-0.8267621 c 0.19404,-0.1480433 0.20089,-0.1866276 0.051,-0.2869515 -0.22897,-0.153217 -1.00557,-0.1521084 -1.10055,0.00162 -0.25377,0.4106037 0.58615,0.63898 1.0496,0.2853808 z m 13.31799,-0.5807167 c 0.88609,-0.8005352 2.3211,-3.1761572 2.16473,-3.5836542 -0.15772,-0.411008 -1.13276,-0.01353 -1.9348,0.788709 -0.92481,0.925066 -1.47601,2.3410799 -1.14908,2.9519503 0.18607,0.3476747 0.4012,0.3109266 0.91915,-0.1570051 z m -8.66064,0.065505 c 0.70042,-0.3573295 1.53349,-1.3686182 2.11076,-2.5623302 0.82469,-1.705344 0.96317,-2.133052 0.80382,-2.482771 -0.0999,-0.219275 -0.18717,-0.27434 -0.33458,-0.211134 -0.10968,0.04703 -0.43351,0.119126 -0.71962,0.160216 -0.28611,0.04108 -0.5864,0.115603 -0.66729,0.165597 -0.25482,0.157491 -2.1039,4.2564033 -2.1039,4.663785 0,0.2217241 0.20517,0.4909367 0.37417,0.4909367 0.0533,0 0.29483,-0.1009359 0.53664,-0.2242995 z m 3.93966,-5.8965312 c 0,-0.230975 -0.0577,-0.346462 -0.17323,-0.346462 -0.18132,0 -0.22189,0.200751 -0.10313,0.510246 0.11574,0.301618 0.27636,0.206434 0.27636,-0.163784 z m 20.56022,7.127961 c -0.15689,-0.0794 -0.40907,-0.3254777 -0.5604,-0.546867 -0.2483,-0.3632423 -0.2694,-0.4903131 -0.21617,-1.3022354 0.11293,-1.7226906 1.30021,-3.5279206 2.74743,-4.1773976 0.85803,-0.385058 1.71393,-0.439996 2.05442,-0.131864 0.21795,0.197241 0.24021,0.195197 0.57592,-0.053 0.32931,-0.243482 0.36547,-0.247501 0.6352,-0.07077 0.5202,0.34085 0.4888,0.562943 -0.28488,2.015382 -0.39673,0.744743 -0.89684,1.687444 -1.11138,2.094895 -0.61215,1.1625765 -0.3854,1.6459257 0.39359,0.8389924 0.49585,-0.5136416 1.49561,-2.2985224 2.01692,-3.6008384 0.3817,-0.95358 0.66804,-1.330057 1.09266,-1.436617 0.36298,-0.09111 0.73734,0.112635 0.73734,0.401284 0,0.297322 0.14409,0.286247 0.66653,-0.05124 0.56527,-0.365148 1.08705,-0.463774 1.58472,-0.299528 0.47432,0.156543 0.75142,0.504056 0.75142,0.942365 0,0.172307 -0.36092,1.057218 -0.80206,1.966462 -0.921,1.898335 -1.01939,2.1728715 -0.77868,2.1728715 0.25934,0 1.11035,-1.2096615 1.35856,-1.9311225 0.64388,-1.87145 2.29759,-3.265809 3.87325,-3.265809 0.7345,0 1.1994,0.45778 1.1994,1.181054 0,1.562775 -1.78951,3.04285 -3.41039,2.820675 -0.47057,-0.06449 -0.51868,-0.04766 -0.58173,0.203547 -0.17454,0.695442 0.65765,1.420691 1.47941,1.2892895 1.49857,-0.2396362 2.17799,-1.1167285 3.98787,-5.1481035 1.41289,-3.147054 1.51722,-3.342158 1.82918,-3.420447 0.35631,-0.08943 0.73771,0.226875 0.73771,0.611782 0,0.150538 -0.18922,0.64919 -0.42051,1.108102 -1.01066,2.005426 -2.81313,6.1338229 -2.81313,6.4432597 0,0.4985243 0.34102,0.438032 0.89037,-0.1579521 0.67365,-0.7308276 1.31146,-1.8701336 2.44788,-4.3725716 1.6174,-3.561572 1.61296,-3.553211 1.92942,-3.632632 0.35626,-0.08942 0.73767,0.22691 0.73767,0.611794 0,0.150538 -0.18922,0.64919 -0.42051,1.108102 -1.01067,2.005426 -2.81313,6.1338229 -2.81313,6.4432597 0,1.2519754 1.95941,-1.1932387 3.06077,-3.8196417 0.55773,-1.330021 0.9342,-1.570281 1.38426,-0.883397 0.1782,0.271973 0.15518,0.354719 -0.58801,2.113846 -0.76916,1.820601 -1.0163,2.8142083 -0.74213,2.9836629 0.22266,0.1376032 0.84442,-0.5585777 1.50697,-1.6873519 0.5426,-0.924407 0.6411,-1.032919 0.90938,-1.001772 0.47223,0.05482 0.46361,0.618516 -0.0252,1.647786 -0.70724,1.4892556 -1.49757,2.140489 -2.59766,2.140489 -0.48828,0 -0.62825,-0.05211 -0.89272,-0.3323266 l -0.31367,-0.3323264 -0.63175,0.3323264 c -0.78862,0.4148306 -1.68817,0.4576646 -2.14044,0.1019056 -0.29198,-0.2296693 -0.29455,-0.2296808 -0.79512,-0.0025 -0.73554,0.33377 -1.60516,0.310303 -2.03935,-0.055042 l -0.34227,-0.2880023 -0.54141,0.2394977 c -1.16692,0.5161826 -2.5354,0.4353066 -3.36632,-0.1989501 l -0.53144,-0.4056609 -0.24757,0.2274523 c -0.84631,0.7775303 -1.91864,0.9586383 -2.46152,0.4157545 -0.4751,-0.4751034 -0.3703,-0.8957661 1.0103,-4.0547392 0.21781,-0.498362 0.23672,-0.629648 0.11233,-0.779539 -0.60327,-0.726901 -2.12344,1.123773 -3.30691,4.0258436 -0.42907,1.0521714 -0.42885,1.0520444 -1.87774,1.0788834 -1.10536,0.02048 -1.29871,-0.0051 -1.55354,-0.205556 -0.36381,-0.2861781 -0.51284,-0.2858547 -0.94754,0.0021 -0.39513,0.261683 -1.1257,0.300775 -1.55561,0.08323 z m 1.36837,-1.2969343 c 0.88609,-0.8005347 2.3211,-3.1761567 2.16473,-3.5836547 -0.15772,-0.411008 -1.13276,-0.01353 -1.93479,0.78871 -0.92481,0.925065 -1.47602,2.3410794 -1.14909,2.9519498 0.18608,0.3476747 0.4012,0.3109266 0.91915,-0.1570051 z m 12.64208,-2.3623297 c 0.64225,-0.592011 0.99065,-1.213945 0.79156,-1.413022 -0.11327,-0.113282 -0.22796,-0.09679 -0.55617,0.07997 -0.6783,0.365275 -1.43021,1.089369 -1.43021,1.377279 0,0.583882 0.53488,0.564075 1.19482,-0.04423 z m -18.28695,-3.006748 c -0.29902,-0.29902 -0.29471,-0.342281 0.11496,-1.153822 0.3888,-0.770209 0.68321,-1.000363 1.03727,-0.810883 0.46456,0.248632 0.50689,0.543726 0.17108,1.192765 -0.54174,1.047031 -0.86161,1.233636 -1.32331,0.77194 z m 27.94794,0 c -0.29902,-0.29902 -0.29471,-0.342281 0.11496,-1.153822 0.3888,-0.770209 0.68322,-1.000363 1.03727,-0.810883 0.46457,0.248632 0.5069,0.543726 0.17108,1.192765 -0.54173,1.047031 -0.86161,1.233636 -1.32331,0.77194 z"
         style="fill:#eaeaea;fill-opacity:1;stroke-width:0.07669082" />
    </g>
  </g>
</svg>
